<?xml version="1.0" encoding="UTF-8"?>
<!DOCTYPE svg PUBLIC "-//W3C//DTD SVG 1.1//EN" "http://www.w3.org/Graphics/SVG/1.1/DTD/svg11.dtd">
<svg xmlns="http://www.w3.org/2000/svg" version="1.1" width="1006px" height="504px" style="shape-rendering:geometricPrecision; text-rendering:geometricPrecision; image-rendering:optimizeQuality; fill-rule:evenodd; clip-rule:evenodd" xmlns:xlink="http://www.w3.org/1999/xlink">
<g><path style="opacity:0.996" fill="#eeeceb" d="M 210.5,114.5 C 211.289,114.217 211.956,113.717 212.5,113C 191.663,112.832 170.996,112.332 150.5,111.5C 183.328,104.918 216.328,99.4175 249.5,95C 248.167,95.6667 246.833,96.3333 245.5,97C 229.604,112.807 213.937,128.807 198.5,145C 217.175,145.422 235.842,145.089 254.5,144C 272.074,136.295 289.574,128.462 307,120.5C 307.667,121.5 307.667,122.5 307,123.5C 295.637,140.03 284.471,156.697 273.5,173.5C 219.498,174.676 165.498,174.509 111.5,173C 99.0449,156.589 86.7116,140.089 74.5,123.5C 97.0386,130.988 119.539,139.321 142,148.5C 164.728,136.719 187.561,125.386 210.5,114.5 Z M 200.5,129.5 C 193.535,137.8 186.202,145.8 178.5,153.5C 176.915,154.002 176.415,155.002 177,156.5C 187.265,155.844 197.432,155.178 207.5,154.5C 223.853,154.645 240.186,154.145 256.5,153C 265.521,149.154 274.521,145.321 283.5,141.5C 278.759,149.309 273.759,156.976 268.5,164.5C 257.333,164.833 246.167,165.167 235,165.5C 195.501,164.929 156.001,164.429 116.5,164C 110.564,157.238 105.231,150.071 100.5,142.5C 114.554,147.63 128.554,152.964 142.5,158.5C 161.577,148.295 180.91,138.628 200.5,129.5 Z"/></g>
<g><path style="opacity:0.357" fill="#afa19d" d="M 150.5,111.5 C 170.996,112.332 191.663,112.832 212.5,113C 211.956,113.717 211.289,114.217 210.5,114.5C 188.663,113.833 166.663,113.167 144.5,112.5C 146.396,111.534 148.396,111.201 150.5,111.5 Z"/></g>
<g><path style="opacity:0.913" fill="#d62a00" d="M 663.5,146.5 C 670.788,145.681 676.288,148.348 680,154.5C 686.014,176.223 692.18,197.889 698.5,219.5C 704.845,197.121 711.345,174.788 718,152.5C 726.116,144.879 734.116,144.879 742,152.5C 742.862,154.087 743.529,155.754 744,157.5C 747.881,184.504 751.715,211.504 755.5,238.5C 750.5,238.5 745.5,238.5 740.5,238.5C 737.745,213.457 734.578,188.457 731,163.5C 728.74,161.003 727.407,161.67 727,165.5C 721.203,186.558 715.203,207.558 709,228.5C 702.445,237.423 695.445,237.757 688,229.5C 681.667,207.167 675.333,184.833 669,162.5C 668.282,161.549 667.449,161.383 666.5,162C 662.3,186.731 658.467,211.564 655,236.5C 650.482,238.407 645.648,239.074 640.5,238.5C 644.246,211.112 648.413,183.779 653,156.5C 654.506,151.009 658.006,147.676 663.5,146.5 Z"/></g>
<g><path style="opacity:0.919" fill="#d62a00" d="M 499.5,147.5 C 506.74,146.369 511.906,149.035 515,155.5C 520.703,178.98 526.703,202.313 533,225.5C 538.859,200.04 544.025,174.374 548.5,148.5C 553.511,148.334 558.511,148.501 563.5,149C 557.879,175.437 552.379,201.937 547,228.5C 543.616,238.773 536.783,241.939 526.5,238C 524.291,236.127 522.458,233.96 521,231.5C 515.229,208.473 509.395,185.473 503.5,162.5C 497.558,185.375 492.058,208.375 487,231.5C 481.642,239.932 474.476,241.765 465.5,237C 463.383,235.269 461.883,233.102 461,230.5C 455.251,203.755 449.251,177.088 443,150.5C 433.667,161.833 424.333,173.167 415,184.5C 413.412,187.174 412.245,190.008 411.5,193C 412.327,196.488 413.827,199.654 416,202.5C 425.715,214.093 435.548,225.593 445.5,237C 439.141,237.831 432.807,237.664 426.5,236.5C 416.214,225.385 406.881,213.552 398.5,201C 394.514,200.501 390.514,200.334 386.5,200.5C 386.5,212.833 386.5,225.167 386.5,237.5C 381.833,237.5 377.167,237.5 372.5,237.5C 372.5,207.833 372.5,178.167 372.5,148.5C 377.167,148.5 381.833,148.5 386.5,148.5C 386.5,161.167 386.5,173.833 386.5,186.5C 390.555,186.824 394.555,186.491 398.5,185.5C 399.831,182.166 401.665,179.166 404,176.5C 411.833,167.333 419.667,158.167 427.5,149C 437.517,148.168 447.517,148.334 457.5,149.5C 462.859,174.935 468.526,200.268 474.5,225.5C 480.766,203.433 486.266,181.1 491,158.5C 491.945,153.233 494.779,149.566 499.5,147.5 Z"/></g>
<g><path style="opacity:0.915" fill="#d62a00" d="M 578.5,148.5 C 596.5,148.5 614.5,148.5 632.5,148.5C 632.5,152.833 632.5,157.167 632.5,161.5C 616.833,161.5 601.167,161.5 585.5,161.5C 585.5,169.833 585.5,178.167 585.5,186.5C 600.167,186.5 614.833,186.5 629.5,186.5C 629.5,190.833 629.5,195.167 629.5,199.5C 614.833,199.5 600.167,199.5 585.5,199.5C 585.5,207.833 585.5,216.167 585.5,224.5C 601.5,224.5 617.5,224.5 633.5,224.5C 633.5,229.167 633.5,233.833 633.5,238.5C 614.792,238.919 596.125,238.419 577.5,237C 573.494,235.172 571.327,232.005 571,227.5C 570.333,204.833 570.333,182.167 571,159.5C 571.063,154.006 573.563,150.34 578.5,148.5 Z"/></g>
<g><path style="opacity:0.916" fill="#d62a00" d="M 762.5,148.5 C 780.503,148.333 798.503,148.5 816.5,149C 822.684,150.993 826.017,155.326 826.5,162C 825.867,165.367 824.7,168.533 823,171.5C 807.315,188.35 791.815,205.35 776.5,222.5C 776.709,223.086 777.043,223.586 777.5,224C 793.497,224.5 809.497,224.667 825.5,224.5C 825.5,229.167 825.5,233.833 825.5,238.5C 806.459,238.921 787.459,238.421 768.5,237C 759.863,231.024 758.363,223.524 764,214.5C 779.87,197.632 795.37,180.465 810.5,163C 794.655,161.516 778.655,161.016 762.5,161.5C 762.5,157.167 762.5,152.833 762.5,148.5 Z"/></g>
<g><path style="opacity:0.946" fill="#d62a00" d="M 838.5,148.5 C 843.167,148.5 847.833,148.5 852.5,148.5C 852.5,178.5 852.5,208.5 852.5,238.5C 847.833,238.5 843.167,238.5 838.5,238.5C 838.5,208.5 838.5,178.5 838.5,148.5 Z"/></g>
<g><path style="opacity:0.216" fill="#ab9d98" d="M 178.5,153.5 C 187.986,154.494 197.652,154.827 207.5,154.5C 197.432,155.178 187.265,155.844 177,156.5C 176.415,155.002 176.915,154.002 178.5,153.5 Z"/></g>
<g><path style="opacity:0.675" fill="#a49a97" d="M 259.5,179.5 C 225.344,180.959 191.01,181.626 156.5,181.5C 190.66,180.254 224.993,179.588 259.5,179.5 Z"/></g>
<g><path style="opacity:0.994" fill="#faf9f9" d="M 85.5,342.5 C 85.8027,289.152 85.4694,235.819 84.5,182.5C 108.492,181.739 132.492,181.406 156.5,181.5C 191.01,181.626 225.344,180.959 259.5,179.5C 273.485,178.709 287.485,178.375 301.5,178.5C 303.716,232.811 304.716,287.144 304.5,341.5C 267.566,364.217 230.399,386.551 193,408.5C 156.904,386.872 121.071,364.872 85.5,342.5 Z M 256.5,212.5 C 260.833,212.5 265.167,212.5 269.5,212.5C 269.172,223.014 269.506,233.347 270.5,243.5C 270.951,269.835 271.118,296.168 271,322.5C 268.502,324.417 265.835,326.084 263,327.5C 248.584,303.666 233.917,279.999 219,256.5C 218.333,255.5 218.333,254.5 219,253.5C 231.507,239.801 244.007,226.135 256.5,212.5 Z M 190.5,213.5 C 197.508,213.334 204.508,213.5 211.5,214C 196.754,229.658 182.588,245.824 169,262.5C 168.5,246.503 168.333,230.503 168.5,214.5C 176.019,214.825 183.352,214.492 190.5,213.5 Z M 133.5,332.5 C 128.888,329.857 124.221,327.19 119.5,324.5C 117.952,288.184 117.285,251.85 117.5,215.5C 123.176,215.334 128.843,215.501 134.5,216C 133.504,254.761 133.17,293.594 133.5,332.5 Z M 193.5,280.5 C 195.776,282.331 197.609,284.664 199,287.5C 209.707,307.081 220.54,326.581 231.5,346C 218.9,354.216 206.067,362.05 193,369.5C 184.848,364.757 176.848,359.757 169,354.5C 168.333,338.833 168.333,323.167 169,307.5C 177.373,298.63 185.54,289.63 193.5,280.5 Z"/></g>
<g><path style="opacity:0.447" fill="#9e918f" d="M 256.5,212.5 C 260.97,211.514 265.637,211.181 270.5,211.5C 270.5,222.167 270.5,232.833 270.5,243.5C 269.506,233.347 269.172,223.014 269.5,212.5C 265.167,212.5 260.833,212.5 256.5,212.5 Z"/></g>
<g><path style="opacity:0.462" fill="#9c918f" d="M 84.5,182.5 C 85.4694,235.819 85.8027,289.152 85.5,342.5C 84.8015,291.661 84.1348,240.661 83.5,189.5C 83.5034,186.975 83.8367,184.641 84.5,182.5 Z"/></g>
<g><path style="opacity:0.909" fill="#fefffe" d="M 404.5,264.5 C 422.525,263.344 436.192,270.344 445.5,285.5C 442.339,288.583 438.672,290.917 434.5,292.5C 420.922,276.232 405.589,274.399 388.5,287C 377.515,301.592 376.682,316.758 386,332.5C 398.024,344.939 411.524,346.773 426.5,338C 429.378,335.291 432.044,332.458 434.5,329.5C 438.336,331.584 442.003,333.917 445.5,336.5C 439.581,347.963 430.247,354.796 417.5,357C 389.838,359.265 372.338,347.098 365,320.5C 362.115,290.255 375.281,271.588 404.5,264.5 Z"/></g>
<g><path style="opacity:0.918" fill="#fefffe" d="M 488.5,264.5 C 514.791,265.545 530.624,278.879 536,304.5C 538.014,323.967 531.18,339.467 515.5,351C 490.245,363.225 469.078,358.392 452,336.5C 439.521,311.271 444.021,289.771 465.5,272C 472.749,267.781 480.415,265.281 488.5,264.5 Z M 487.5,278.5 C 511.67,280.178 522.837,293.178 521,317.5C 516.173,336.498 504.006,344.998 484.5,343C 466.078,336.346 458.245,323.179 461,303.5C 464.896,289.767 473.729,281.434 487.5,278.5 Z"/></g>
<g><path style="opacity:0.925" fill="#fefffe" d="M 555.5,264.5 C 561.533,263.87 566.367,265.87 570,270.5C 582.667,294.5 595.333,318.5 608,342.5C 608.5,317.169 608.667,291.836 608.5,266.5C 613.167,266.5 617.833,266.5 622.5,266.5C 622.975,294.897 622.475,323.23 621,351.5C 614.08,359.117 606.747,359.451 599,352.5C 586.421,328.341 573.588,304.341 560.5,280.5C 559.5,305.825 559.167,331.158 559.5,356.5C 555.167,356.5 550.833,356.5 546.5,356.5C 546.333,328.498 546.5,300.498 547,272.5C 548.445,268.218 551.278,265.551 555.5,264.5 Z"/></g>
<g><path style="opacity:0.909" fill="#fefffe" d="M 672.5,264.5 C 690.525,263.344 704.192,270.344 713.5,285.5C 710.339,288.583 706.672,290.917 702.5,292.5C 688.922,276.232 673.589,274.399 656.5,287C 645.515,301.592 644.682,316.758 654,332.5C 666.024,344.939 679.524,346.773 694.5,338C 697.378,335.291 700.044,332.458 702.5,329.5C 706.336,331.584 710.003,333.917 713.5,336.5C 707.581,347.963 698.247,354.796 685.5,357C 657.838,359.265 640.338,347.098 633,320.5C 630.115,290.255 643.281,271.588 672.5,264.5 Z"/></g>
<g><path style="opacity:0.915" fill="#fefffe" d="M 728.5,266.5 C 746.5,266.5 764.5,266.5 782.5,266.5C 782.5,270.833 782.5,275.167 782.5,279.5C 766.833,279.5 751.167,279.5 735.5,279.5C 735.5,287.833 735.5,296.167 735.5,304.5C 750.167,304.5 764.833,304.5 779.5,304.5C 779.5,308.833 779.5,313.167 779.5,317.5C 764.833,317.5 750.167,317.5 735.5,317.5C 735.5,325.833 735.5,334.167 735.5,342.5C 751.5,342.5 767.5,342.5 783.5,342.5C 783.5,347.167 783.5,351.833 783.5,356.5C 764.792,356.919 746.125,356.419 727.5,355C 723.494,353.172 721.327,350.005 721,345.5C 720.333,322.833 720.333,300.167 721,277.5C 721.063,272.006 723.563,268.34 728.5,266.5 Z"/></g>
<g><path style="opacity:0.937" fill="#fefffe" d="M 796.5,266.5 C 809.171,266.333 821.838,266.5 834.5,267C 857.468,271.119 866.968,284.619 863,307.5C 859.678,319.485 851.845,326.651 839.5,329C 829.884,330.324 820.217,330.824 810.5,330.5C 810.5,339.167 810.5,347.833 810.5,356.5C 805.833,356.5 801.167,356.5 796.5,356.5C 796.5,326.5 796.5,296.5 796.5,266.5 Z M 810.5,279.5 C 820.744,278.79 830.744,279.957 840.5,283C 849.139,289.386 851.306,297.552 847,307.5C 844.408,310.762 841.241,313.262 837.5,315C 828.568,316.381 819.568,316.881 810.5,316.5C 810.5,304.167 810.5,291.833 810.5,279.5 Z"/></g>
<g><path style="opacity:0.914" fill="#fefffe" d="M 862.5,266.5 C 885.167,266.5 907.833,266.5 930.5,266.5C 930.5,270.833 930.5,275.167 930.5,279.5C 921.833,279.5 913.167,279.5 904.5,279.5C 904.5,305.167 904.5,330.833 904.5,356.5C 899.5,356.5 894.5,356.5 889.5,356.5C 889.5,330.833 889.5,305.167 889.5,279.5C 880.5,279.5 871.5,279.5 862.5,279.5C 862.5,275.167 862.5,270.833 862.5,266.5 Z"/></g>
</svg>
